TITLE ""
FILE "1Q_t_1959-1967.mp3" MP3
  TRACK 01 AUDIO
    TITLE "1Q_t_1959-1967_01"
    INDEX 01 00:00:00
  TRACK 02 AUDIO
    TITLE "1Q_t_1959-1967_02"
    INDEX 01 00:01:18
  TRACK 03 AUDIO
    TITLE "1Q_t_1959-1967_03"
    INDEX 01 00:01:29
  TRACK 04 AUDIO
    TITLE "1Q_t_1959-1967_04"
    INDEX 01 00:03:56
  TRACK 05 AUDIO
    TITLE "1Q_t_1959-1967_05"
    INDEX 01 00:03:65
  TRACK 06 AUDIO
    TITLE "1Q_t_1959-1967_06"
    INDEX 01 00:08:18
  TRACK 07 AUDIO
    TITLE "1Q_t_1959-1967_07"
    INDEX 01 00:09:03
  TRACK 08 AUDIO
    TITLE "1Q_t_1959-1967_08"
    INDEX 01 00:10:28
  TRACK 09 AUDIO
    TITLE "1Q_t_1959-1967_09"
    INDEX 01 00:10:38
  TRACK 10 AUDIO
    TITLE "1Q_t_1959-1967_10"
    INDEX 01 00:13:44
  TRACK 11 AUDIO
    TITLE "1Q_t_1959-1967_11"
    INDEX 01 00:13:52
  TRACK 12 AUDIO
    TITLE "1Q_t_1959-1967_12"
    INDEX 01 00:18:02
  TRACK 13 AUDIO
    TITLE "1Q_t_1959-1967_13"
    INDEX 01 00:18:51
  TRACK 14 AUDIO
    TITLE "1Q_t_1959-1967_14"
    INDEX 01 00:19:66
  TRACK 15 AUDIO
    TITLE "1Q_t_1959-1967_15"
    INDEX 01 00:20:03
  TRACK 16 AUDIO
    TITLE "1Q_t_1959-1967_16"
    INDEX 01 00:21:09
  TRACK 17 AUDIO
    TITLE "1Q_t_1959-1967_17"
    INDEX 01 00:21:16
  TRACK 18 AUDIO
    TITLE "1Q_t_1959-1967_18"
    INDEX 01 00:26:35
  TRACK 19 AUDIO
    TITLE "1Q_t_1959-1967_19"
    INDEX 01 00:27:07
  TRACK 20 AUDIO
    TITLE "1Q_t_1959-1967_20"
    INDEX 01 00:28:28
  TRACK 21 AUDIO
    TITLE "1Q_t_1959-1967_21"
    INDEX 01 00:28:38
  TRACK 22 AUDIO
    TITLE "1Q_t_1959-1967_22"
    INDEX 01 00:29:49
  TRACK 23 AUDIO
    TITLE "1Q_t_1959-1967_23"
    INDEX 01 00:29:61
  TRACK 24 AUDIO
    TITLE "1Q_t_1959-1967_24"
    INDEX 01 00:34:44
  TRACK 25 AUDIO
    TITLE "1Q_t_1959-1967_25"
    INDEX 01 00:35:15
  TRACK 26 AUDIO
    TITLE "1Q_t_1959-1967_26"
    INDEX 01 00:36:18
  TRACK 27 AUDIO
    TITLE "1Q_t_1959-1967_27"
    INDEX 01 00:36:26
  TRACK 28 AUDIO
    TITLE "1Q_t_1959-1967_28"
    INDEX 01 00:38:40
  TRACK 29 AUDIO
    TITLE "1Q_t_1959-1967_29"
    INDEX 01 00:38:48
  TRACK 30 AUDIO
    TITLE "1Q_t_1959-1967_30"
    INDEX 01 00:42:09
  TRACK 31 AUDIO
    TITLE "1Q_t_1959-1967_31"
    INDEX 01 00:42:56
  TRACK 32 AUDIO
    TITLE "1Q_t_1959-1967_32"
    INDEX 01 00:43:63
  TRACK 33 AUDIO
    TITLE "1Q_t_1959-1967_33"
    INDEX 01 00:43:71
  TRACK 34 AUDIO
    TITLE "1Q_t_1959-1967_34"
    INDEX 01 00:46:20
  TRACK 35 AUDIO
    TITLE "1Q_t_1959-1967_35"
    INDEX 01 00:46:30
  TRACK 36 AUDIO
    TITLE "1Q_t_1959-1967_36"
    INDEX 01 00:50:26
  TRACK 37 AUDIO
    TITLE "1Q_t_1959-1967_37"
    INDEX 01 00:51:00
  TRACK 38 AUDIO
    TITLE "1Q_t_1959-1967_38"
    INDEX 01 00:52:23
  TRACK 39 AUDIO
    TITLE "1Q_t_1959-1967_39"
    INDEX 01 00:52:68
  TRACK 40 AUDIO
    TITLE "1Q_t_1959-1967_40"
    INDEX 01 00:54:10
  TRACK 41 AUDIO
    TITLE "1Q_t_1959-1967_41"
    INDEX 01 00:54:22
  TRACK 42 AUDIO
    TITLE "1Q_t_1959-1967_42"
    INDEX 01 00:55:29
  TRACK 43 AUDIO
    TITLE "1Q_t_1959-1967_43"
    INDEX 01 00:55:37
  TRACK 44 AUDIO
    TITLE "1Q_t_1959-1967_44"
    INDEX 01 00:59:44
  TRACK 45 AUDIO
    TITLE "1Q_t_1959-1967_45"
    INDEX 01 01:00:16
  TRACK 46 AUDIO
    TITLE "1Q_t_1959-1967_46"
    INDEX 01 01:01:18
  TRACK 47 AUDIO
    TITLE "1Q_t_1959-1967_47"
    INDEX 01 01:01:28
  TRACK 48 AUDIO
    TITLE "1Q_t_1959-1967_48"
    INDEX 01 01:03:25
  TRACK 49 AUDIO
    TITLE "1Q_t_1959-1967_49"
    INDEX 01 01:03:32
  TRACK 50 AUDIO
    TITLE "1Q_t_1959-1967_50"
    INDEX 01 01:06:68
  TRACK 51 AUDIO
    TITLE "1Q_t_1959-1967_51"
    INDEX 01 01:07:42
  TRACK 52 AUDIO
    TITLE "1Q_t_1959-1967_52"
    INDEX 01 01:08:55
  TRACK 53 AUDIO
    TITLE "1Q_t_1959-1967_53"
    INDEX 01 01:08:61
  TRACK 54 AUDIO
    TITLE "1Q_t_1959-1967_54"
    INDEX 01 01:10:17
  TRACK 55 AUDIO
    TITLE "1Q_t_1959-1967_55"
    INDEX 01 01:10:25
  TRACK 56 AUDIO
    TITLE "1Q_t_1959-1967_56"
    INDEX 01 01:15:06
